<svg xmlns="http://www.w3.org/2000/svg" width="338.554" height="147.768" viewBox="0 0 338.554 147.768">
  <g id="Taskipy" transform="translate(-342.723 -438.116)">
    <g id="Group_2" data-name="Group 2">
      <path id="Path_1" data-name="Path 1" d="M414.32,438.116H569.686c39.541,0,71.6,30.98,71.6,69.2v9.378c0,38.215-32.055,69.195-71.6,69.195H414.32c-39.542,0-71.6-30.98-71.6-69.195v-9.378C342.723,469.1,374.778,438.116,414.32,438.116Z" fill="#55c660" fill-rule="evenodd"/>
      <path id="Path_2" data-name="Path 2" d="M440.875,438.116H605.44c41.884,0,75.837,30.98,75.837,69.2v9.378c0,38.215-33.953,69.195-75.837,69.195H440.875c-41.883,0-75.836-30.98-75.836-69.195v-9.378C365.039,469.1,398.992,438.116,440.875,438.116Z" fill="#161519" fill-rule="evenodd"/>
      <path id="Path_3" data-name="Path 3" d="M392.471,499.152v-11.6l49.031,19.3V517.8L392.471,537.05V525.5l36.878-13.127Z" fill="#f2f2f2" fill-rule="evenodd"/>
      <path id="Path_4" data-name="Path 4" d="M645.231,550.919V560.2h-57.2v-9.278Z" fill="#f2f2f2" fill-rule="evenodd"/>
      <g id="Group_1" data-name="Group 1">
        <path id="Path_5" data-name="Path 5" d="M490.959,521.249A10.549,10.549,0,0,1,501.5,510.712h32.57a4.8,4.8,0,0,0,4.79-4.79V478.908a14.385,14.385,0,0,0-14.369-14.369H511.076a14.385,14.385,0,0,0-14.369,14.369v7.855h21.074a2.874,2.874,0,1,1,0,5.748H483.1a14.385,14.385,0,0,0-14.369,14.369v13.411A14.385,14.385,0,0,0,483.1,534.66h7.855ZM511.076,479.1a2.874,2.874,0,1,1,2.874-2.874A2.874,2.874,0,0,1,511.076,479.1Z" fill="#f2f2f2" fill-rule="evenodd"/>
        <path id="Path_6" data-name="Path 6" d="M552.459,492.511H544.6v13.411a10.549,10.549,0,0,1-10.538,10.537H501.5a4.8,4.8,0,0,0-4.789,4.79v27.014a14.385,14.385,0,0,0,14.369,14.369h13.411a14.385,14.385,0,0,0,14.369-14.369v-7.855H517.781a2.874,2.874,0,0,1,0-5.748h34.678a14.385,14.385,0,0,0,14.369-14.369V506.88A14.385,14.385,0,0,0,552.459,492.511Zm-27.972,55.561a2.873,2.873,0,1,1-2.874,2.873A2.873,2.873,0,0,1,524.487,548.072Z" fill="#f2f2f2" fill-rule="evenodd"/>
      </g>
    </g>
  </g>
</svg>
