<?xml version="1.0" encoding="UTF-8"?>
<svg width="191px" height="332px" viewBox="0 0 191 332" version="1.1" xmlns="http://www.w3.org/2000/svg" xmlns:xlink="http://www.w3.org/1999/xlink">
    <!-- Generator: Sketch 57.1 (83088) - https://sketch.com -->
    <title>Shape</title>
    <desc>Created with Sketch.</desc>
    <defs>
        <linearGradient x1="50%" y1="0%" x2="50%" y2="100%" id="linearGradient-1">
            <stop stop-color="#B5EB45" offset="0%"></stop>
            <stop stop-color="#7ED321" offset="100%"></stop>
        </linearGradient>
    </defs>
    <g id="Page-1" stroke="none" stroke-width="1" fill="none" fill-rule="evenodd">
        <g id="Artboard" transform="translate(-18.000000, -14.000000)" fill="url(#linearGradient-1)" fill-rule="nonzero">
            <path d="M109.010217,14.0014267 C102.699932,14.0322873 96.5320782,14.563089 91.2373841,15.4827339 C75.63197,18.1984636 72.7957479,23.8891517 72.7957479,34.3755716 L72.7957479,50.5773681 L109.920533,50.5773681 L109.920533,57.2062175 L72.7957479,57.2062175 L55.1034193,57.2062175 C44.3901787,57.2062175 35.0021597,63.5573217 32.060663,75.6361468 C28.6794899,89.4801961 28.5308669,98.1149822 32.060663,112.570071 C34.6863358,123.328064 40.9470794,131 51.66032,131 L66.4111519,131 L66.4111519,110.749297 C66.4111519,98.7507098 76.9386138,87.6532507 89.4477156,87.6532507 L122.033306,87.6532507 C132.2821,87.6532507 140.46875,79.3332424 140.46875,69.1801166 L140.46875,34.3755716 C140.46875,24.5248793 132.040588,17.130688 122.033306,15.4765617 C115.692059,14.4396468 115.314309,13.9705662 109.010217,14.0014267 Z M161.00111,294.40625 C164.042792,294.40625 166.44381,295.52603 168.204235,297.765625 C169.96466,300.00522 170.84486,303.135397 170.84486,307.15625 C170.84486,311.135437 170.131325,314.963523 168.704235,318.640625 C167.277145,322.317727 165.324039,325.234364 162.84486,327.390625 C160.365681,329.546886 157.636542,330.625 154.65736,330.625 C152.928185,330.625 151.438616,330.239587 150.18861,329.46875 C148.938604,328.697913 147.782365,327.385426 146.71986,325.53125 L146.46986,325.53125 C146.219859,328.843767 145.771947,331.916652 145.12611,334.75 L142.87611,345.375 L133.46986,345.375 L144.15736,295.0625 L151.34486,295.0625 L150.81361,300.375 L151.09486,300.375 C153.969874,296.395813 157.271925,294.40625 161.00111,294.40625 Z M184.070082,295.0625 L185.820082,311.25 C186.11175,313.791679 186.257582,316.843732 186.257582,320.40625 L186.445082,320.40625 C186.861751,319.343745 187.32008,318.098965 187.820082,316.671875 C188.320085,315.244785 188.997161,313.645842 189.851332,311.875 L197.976332,295.0625 L208.195082,295.0625 L186.945082,335 C183.257564,341.916701 178.226364,345.375 171.851332,345.375 C169.976323,345.375 168.445088,345.177085 167.257582,344.78125 L167.257582,337.28125 C168.674256,337.552085 169.882577,337.6875 170.882582,337.6875 C172.632591,337.6875 174.169034,337.187505 175.491957,336.1875 C176.81488,335.187495 178.038826,333.635427 179.163832,331.53125 L179.976332,330 L174.851332,295.0625 L184.070082,295.0625 Z M28.9375,288.03125 L27.21875,296.03125 L36.15625,296.03125 L35.59375,298.5625 L26.75,298.5625 L22.53125,318.40625 C22.0729144,320.46876 21.84375,322.177077 21.84375,323.53125 C21.84375,326.427098 23.1562369,327.875 25.78125,327.875 C27.1979238,327.875 28.7812413,327.604169 30.53125,327.0625 L30.53125,329.75 C28.4270728,330.333336 26.6562572,330.625 25.21875,330.625 C23.1562397,330.625 21.5625056,330.057297 20.4375,328.921875 C19.3124944,327.786453 18.75,326.135427 18.75,323.96875 C18.75,322.447909 19.0520803,320.302097 19.65625,317.53125 L23.6875,298.5625 L18,298.5625 L18.4375,296.46875 L24.1875,295.9375 L27.21875,288.03125 L28.9375,288.03125 Z M53.443972,295.5 C58.2773295,295.5 61.1835504,297.781227 62.162722,302.34375 L62.350222,302.34375 L64.193972,296.03125 L66.693972,296.03125 L59.537722,330 L56.975222,330 L58.381472,321.4375 L58.193972,321.4375 C56.4439633,324.395848 54.4960661,326.666659 52.350222,328.25 C50.2043779,329.833341 47.7356526,330.625 44.943972,330.625 C39.0897761,330.625 36.162722,326.729206 36.162722,318.9375 C36.162722,314.833313 36.9439642,310.916685 38.506472,307.1875 C40.0689798,303.458315 42.1575006,300.578135 44.772097,298.546875 C47.3866934,296.515615 50.2772895,295.5 53.443972,295.5 Z M83.825444,295.5 C85.3879518,295.5 87.038977,295.68229 88.778569,296.046875 C90.518161,296.41146 91.9816881,296.89583 93.169194,297.5 L92.075444,300.25 C89.2420965,298.91666 86.492124,298.25 83.825444,298.25 C81.4087653,298.25 79.4712846,298.802078 78.012944,299.90625 C76.5546034,301.010422 75.825444,302.447908 75.825444,304.21875 C75.825444,305.364589 76.0025256,306.281247 76.356694,306.96875 C76.7108624,307.656253 77.3410645,308.369788 78.247319,309.109375 C79.1535735,309.848962 80.3983528,310.645829 81.981694,311.5 C84.3567059,312.812507 86.0389807,313.890621 87.028569,314.734375 C88.0181573,315.578129 88.7473167,316.479162 89.216069,317.4375 C89.6848213,318.395838 89.919194,319.51041 89.919194,320.78125 C89.919194,323.781265 88.8462881,326.171866 86.700444,327.953125 C84.5545999,329.734384 81.6379624,330.625 77.950444,330.625 C74.3462593,330.625 71.1692077,329.843758 68.419194,328.28125 L68.419194,324.9375 C69.9608684,325.895838 71.5546024,326.635414 73.200444,327.15625 C74.8462856,327.677086 76.3879368,327.9375 77.825444,327.9375 C80.7004584,327.9375 82.8983531,327.338548 84.419194,326.140625 C85.9400349,324.942702 86.700444,323.239594 86.700444,321.03125 C86.700444,320.156246 86.5389873,319.38542 86.216069,318.71875 C85.8931507,318.05208 85.3723226,317.411461 84.653569,316.796875 C83.9348154,316.182289 82.5546209,315.291673 80.512944,314.125 C77.4295953,312.458325 75.3462828,310.942715 74.262944,309.578125 C73.1796053,308.213535 72.637944,306.552093 72.637944,304.59375 C72.637944,301.92707 73.6639754,299.7448 75.716069,298.046875 C77.7681626,296.34895 80.4712606,295.5 83.825444,295.5 Z M108.425666,281.375 L103.238166,305.75 L101.050666,315.09375 L101.175666,315.09375 L120.206916,296.03125 L124.113166,296.03125 L109.300666,310.6875 L118.581916,330 L115.269416,330 L107.019416,312.53125 L100.613166,318.40625 L98.113166,330 L95.113166,330 L105.425666,281.375 L108.425666,281.375 Z M134.088388,296.03125 L126.932138,330 L123.869638,330 L131.088388,296.03125 L134.088388,296.03125 Z M53.506472,298.1875 C50.9231257,298.1875 48.5898157,299.041658 46.506472,300.75 C44.4231282,302.458342 42.714812,305.015608 41.381472,308.421875 C40.048132,311.828142 39.381472,315.218733 39.381472,318.59375 C39.381472,321.760432 39.9023001,324.088534 40.943972,325.578125 C41.9856439,327.067716 43.5585448,327.8125 45.662722,327.8125 C47.5168979,327.8125 49.3658378,327.166673 51.209597,325.875 C53.0533562,324.583327 54.7095897,322.854177 56.178347,320.6875 C57.6471043,318.520823 58.7668848,316.125013 59.537722,313.5 C60.3085592,310.874987 60.693972,308.656259 60.693972,306.84375 C60.693972,305.197908 60.4231414,303.723965 59.881472,302.421875 C59.3398026,301.119785 58.5377273,300.088545 57.475222,299.328125 C56.4127167,298.567705 55.0898133,298.1875 53.506472,298.1875 Z M157.21986,302.03125 C155.803186,302.03125 154.433408,302.734368 153.110485,304.140625 C151.787562,305.546882 150.725072,307.421863 149.922985,309.765625 C149.120898,312.109387 148.71986,314.697902 148.71986,317.53125 C148.71986,319.197925 149.105273,320.531245 149.87611,321.53125 C150.646947,322.531255 151.709437,323.03125 153.06361,323.03125 C154.45945,323.03125 155.79277,322.312507 157.06361,320.875 C158.33445,319.437493 159.360481,317.463554 160.141735,314.953125 C160.922989,312.442696 161.31361,309.968762 161.31361,307.53125 C161.31361,303.864565 159.94904,302.03125 157.21986,302.03125 Z M134.994638,283.53125 C136.182144,283.53125 136.775888,284.281243 136.775888,285.78125 C136.775888,286.968756 136.546724,287.906247 136.088388,288.59375 C135.630052,289.281253 135.036308,289.625 134.307138,289.625 C133.702968,289.625 133.239431,289.421877 132.916513,289.015625 C132.593595,288.609373 132.432138,288.04167 132.432138,287.3125 C132.432138,286.166661 132.661302,285.250003 133.119638,284.5625 C133.577974,283.874997 134.202967,283.53125 134.994638,283.53125 Z M159.10875,89 C172.562407,89 183.46875,99.8799298 183.46875,113.301003 L183.46875,237.698997 C183.46875,251.12007 172.562407,262 159.10875,262 L91.82875,262 C78.3750935,262 67.46875,251.12007 67.46875,237.698997 L67.46875,113.301003 C67.46875,99.8799298 78.3750935,89 91.82875,89 L159.10875,89 Z M153.902797,215.712375 L97.0347032,215.712375 C93.8392095,215.712375 91.24875,218.302834 91.24875,221.498328 C91.24875,224.619508 93.720124,227.163467 96.8127684,227.280103 L97.0347032,227.284281 L153.902797,227.284281 C157.098291,227.284281 159.68875,224.693821 159.68875,221.498328 C159.68875,218.302834 157.098291,215.712375 153.902797,215.712375 Z M153.902797,185.046823 L97.0347032,185.046823 C93.8392095,185.046823 91.24875,187.637282 91.24875,190.832776 C91.24875,193.953956 93.720124,196.497915 96.8127684,196.614551 L97.0347032,196.618729 L153.902797,196.618729 C157.098291,196.618729 159.68875,194.02827 159.68875,190.832776 C159.68875,187.637282 157.098291,185.046823 153.902797,185.046823 Z M153.902797,154.381271 L97.0347032,154.381271 C93.8392095,154.381271 91.24875,156.97173 91.24875,160.167224 C91.24875,163.288404 93.720124,165.832364 96.8127684,165.948999 L97.0347032,165.953177 L153.902797,165.953177 C157.098291,165.953177 159.68875,163.362718 159.68875,160.167224 C159.68875,156.97173 157.098291,154.381271 153.902797,154.381271 Z M153.902797,123.715719 L97.0347032,123.715719 C93.8392095,123.715719 91.24875,126.306179 91.24875,129.501672 C91.24875,132.622852 93.720124,135.166812 96.8127684,135.283447 L97.0347032,135.287625 L153.902797,135.287625 C157.098291,135.287625 159.68875,132.697166 159.68875,129.501672 C159.68875,126.306179 157.098291,123.715719 153.902797,123.715719 Z M87.46875,28 C91.3228234,28 94.46875,31.1492205 94.46875,35.0218263 C94.46875,38.8757238 91.3228234,42 87.46875,42 C83.602143,42 80.46875,38.8819599 80.46875,35.0218263 C80.46875,31.1554566 83.602143,28 87.46875,28 Z" id="Shape"></path>
        </g>
    </g>
</svg>